<svg width="177" height="140" viewBox="0 0 177 140" fill="none" xmlns="http://www.w3.org/2000/svg">
<path d="M108.287 25.7817C109.627 25.7817 110.556 27.292 112.277 26.8953C113.982 26.4987 119.921 16.4606 143.523 0.0915326C143.523 0.0915326 137.249 3.76809 135.468 4.53087C131.417 6.1632 127.824 4.77495 130.702 1.31197C115.261 10.2822 106.521 20.3965 103.247 15.6368C103.841 18.8252 102.105 20.3508 100.872 23.3866C99.6382 26.4224 99.1814 30.3583 99.1814 30.3583C97.5977 28.9548 97.3998 25.0494 97.08 24.3324C96.7603 23.6154 95.603 23.112 94.9482 22.9442C93.3037 21.7237 93.4864 21.0678 90.8369 21.4949C87.4108 21.9068 81.8071 4.91225 85.4008 6.48356C85.4008 6.48356 84.8374 8.77188 85.8728 11.3195C86.9083 13.8672 92.9687 13.1349 89.5121 4.60714C93.0905 5.93437 92.5423 11.0907 98.8007 8.39049C103.262 10.5263 104.237 6.84969 103.673 4.56138C103.11 2.27306 104.572 0.717006 107.404 3.50875C110.221 6.28524 112.201 4.13422 112.322 2.88328C112.444 1.63233 112.064 0.0915326 110.038 0C113.282 1.29671 110.906 6.0259 108.059 2.79175C105.166 -0.442408 102.729 1.22044 102.105 2.63919C101.481 4.05795 103.81 8.20743 100.293 6.92597C102.973 2.28832 96.1207 0.564451 96.1207 4.77495C96.1207 6.13269 96.745 6.86495 96.745 6.86495C94.8721 6.75816 94.4153 5.09532 93.5473 4.11897C92.6794 3.12737 90.8673 1.9527 86.6646 2.71547C86.6646 2.71547 85.5683 1.96795 83.9846 1.84591C78.3354 1.41876 76.904 8.19217 78.5638 11.8992C75.9447 11.6857 61.4789 0.213576 61.4789 0.213576C61.4789 0.213576 62.8493 2.28832 62.7579 3.40196C62.6666 4.53087 61.4789 5.99539 52.8755 1.03737C52.8755 1.03737 68.727 14.035 75.5335 23.0662C74.1936 23.8137 73.7977 24.5002 73.9042 28.8633C74.0108 33.2264 72.9602 32.7992 71.9095 36.1249C70.8588 39.4506 71.8029 41.4033 69.7777 42.8373C67.7372 44.256 68.3006 45.4765 67.8134 46.3918C67.3413 47.3224 65.3161 47.2308 64.57 48.314C63.8086 49.3971 64.4482 51.3651 63.4584 52.3414C62.4838 53.3178 60.7023 53.8364 60.3673 54.8281C59.7886 56.5214 60.9002 58.5961 61.022 59.6945C61.22 61.4489 60.0932 63.2948 60.1236 64.439C60.1541 65.5831 61.0068 66.2391 60.9611 67.2612C60.9307 67.7952 60.3368 68.5122 60.3825 69.4885C60.4434 70.8158 61.5854 71.8836 63.6259 71.1514C63.7325 71.2582 63.8086 71.609 63.8086 71.609C64.1284 71.2582 64.0827 70.9531 64.0827 70.9531C64.6004 70.6174 65.1029 70.2971 65.4075 69.7936C66.0013 69.8547 65.9252 71.3039 67.052 71.7616C68.1788 72.2193 68.4834 71.5328 68.8488 71.4565C70.3106 72.0514 70.4477 71.5785 70.8588 70.4344C70.8588 70.4344 71.3004 70.9073 71.1633 71.8989C71.7268 71.2887 71.6202 70.7395 71.6202 70.7395C72.549 71.6243 73.6911 70.9225 72.9906 69.7174C74.0413 68.2681 75.6097 69.7784 75.1224 71.7768C75.9599 70.1903 75.7924 69.6411 75.4422 68.8783C74.7265 67.4901 73.3256 67.368 72.0922 68.0088C72.077 67.5206 71.7268 67.2155 71.3461 67.1392C70.9502 67.0477 70.3259 67.368 69.9604 67.246C69.5949 67.1239 69.6711 66.8646 69.1686 66.6663C68.6661 66.468 68.5899 66.8799 67.8438 66.5595C67.0977 66.2391 67.1738 65.0187 66.8388 64.4237C66.5038 63.8135 64.3416 61.4184 65.6054 59.4657C66.1688 58.5961 66.8997 58.0775 67.1281 57.2994C67.4022 56.3383 67.0825 55.1942 67.2347 54.9348C67.387 54.6908 68.8031 53.9432 69.8995 53.0432C70.8436 52.2651 71.4527 51.3193 71.9704 50.9074C72.6708 50.3582 74.7113 49.7938 76.2035 48.5123C77.102 47.719 77.3304 46.2545 78.0765 45.2171C78.8226 44.1798 80.0103 43.6916 80.6347 42.3033C81.2894 45.9494 83.1167 45.6595 84.4262 47.719C85.7358 49.7785 86.284 52.433 86.8626 52.8296C86.2992 54.2484 86.6494 55.2094 87.7762 56.3536C88.903 57.4978 89.8319 60.1827 90.2126 62.0896C90.5932 63.9966 91.4612 64.5458 93.6996 65.4764C93.7148 65.7662 93.7757 66.8036 94.1412 67.8562C94.5828 69.1071 94.126 70.6479 94.0194 72.9515C94.1564 74.0957 94.9482 72.7074 94.598 74.889C94.5219 75.4687 92.6794 75.1788 92.786 75.7433C93.4407 76.2619 94.5523 75.789 94.8264 76.3687C95.1005 76.9484 97.5216 75.9568 97.1409 75.606C96.7603 75.2703 95.9837 75.2703 95.2832 75.2093C94.5828 75.1483 95.1614 71.9447 95.1614 70.6937C95.1614 69.4733 94.461 67.7799 95.3441 66.1781C96.1359 66.7273 97.1105 67.7189 98.5875 67.8257C100.689 67.8409 99.8514 66.651 100.232 66.4069C100.232 66.4069 100.765 66.4527 100.765 67.7037C100.765 68.9546 100.537 69.275 100.658 69.7936C100.78 70.2971 100.993 70.5412 101.146 70.6327C100.872 69.8852 101.085 69.1529 101.313 68.2528C101.542 67.3528 101.861 66.2239 100.689 65.4153C100.902 64.9119 100.765 62.8219 99.9427 62.5473C99.9427 62.5473 99.8209 60.9302 99.5316 60.2742C99.9427 60.0149 100.156 59.3894 100.156 59.3894C103.293 62.6388 102.394 64.4085 102.364 65.4916C102.349 66.5747 103.323 68.3901 103.064 69.0614C102.044 69.2902 101.328 70.5412 101.709 72.0209C101.953 71.3344 102.196 71.426 102.196 71.426C102.196 71.426 102.272 71.8531 102.607 71.9599C102.942 72.0514 103.384 71.7921 103.384 71.7921C105.927 72.5396 106.292 70.3886 106.292 70.3886C107.724 70.5717 107.861 72.3566 109.81 72.3566C111.135 72.3566 111.302 71.609 111.302 71.609C112.734 72.5244 113.586 71.5175 113.388 70.5412C113.876 70.8463 114.013 71.3802 113.952 72.1582C114.667 71.3802 114.256 70.0682 114.256 70.0682C114.256 70.0682 115.459 70.2361 115.398 71.7311C116.373 69.6411 114.896 68.5885 113.51 68.9088C113.008 67.6731 111.317 67.7189 111.317 67.7189C111.317 67.7189 110.8 66.9714 109.764 66.651C108.729 66.3307 107.922 67.246 107.693 65.5679C108.013 63.661 107.435 63.4931 106.277 61.9218C105.942 61.1286 105.348 58.5351 105.348 57.9859C105.76 56.5062 105.562 54.3856 104.191 53.6229C105.744 51.3651 104.145 51.1362 103.856 49.5039C103.704 48.7106 104.404 47.4902 104.161 45.9799C103.917 44.4696 103.14 43.3407 102.821 42.3491C102.501 41.3575 102.729 38.7031 101.709 36.5673C104.054 33.9891 104.008 25.7817 108.287 25.7817Z" fill="black"/>
<path d="M8.08105 123.054H12.4113L19.4251 134.311L26.5303 123.054H30.8301L19.4251 140L8.08105 123.054Z" fill="black"/>
<path d="M37.5693 139.669V123.054H41.2287V139.669H37.5693Z" fill="black"/>
<path d="M66.3105 126.591C64.801 126.155 62.4529 125.794 59.373 125.794C56.415 125.794 53.4418 126.125 53.4418 127.75C53.4418 131.196 67.8658 126.952 67.8658 134.673C67.8658 139.278 62.8646 140 58.138 140C55.2562 140 52.039 139.729 49.5537 139.308L49.6909 136.298C52.344 136.764 54.8293 136.99 57.6348 136.99C61.1264 136.99 64.2826 136.599 64.2826 134.808C64.2826 131.061 49.8282 135.44 49.8282 127.885C49.8282 123.386 54.997 122.784 58.7783 122.784C62.1937 122.784 65.3499 123.28 66.4935 123.581L66.3105 126.591Z" fill="black"/>
<path d="M75.9473 139.669V123.054H79.6066V139.669H75.9473Z" fill="black"/>
<path d="M99.4435 140C92.9024 140 87.6421 136.719 87.6421 131.392C87.6421 125.989 92.9024 122.784 99.4435 122.784C106.015 122.784 111.245 125.989 111.245 131.392C111.26 136.734 106.03 140 99.4435 140ZM99.4435 125.974C94.8846 125.974 91.5607 127.991 91.5607 131.407C91.5607 134.748 94.8846 136.84 99.4435 136.84C104.002 136.84 107.326 134.748 107.326 131.407C107.326 127.991 104.018 125.974 99.4435 125.974Z" fill="black"/>
<path d="M122.969 129.375V139.669H119.31V122.784L135.213 133.378V123.055H138.872V140L122.969 129.375Z" fill="black"/>
<path d="M163.97 126.591C162.46 126.155 160.112 125.794 157.032 125.794C154.074 125.794 151.101 126.125 151.101 127.75C151.101 131.196 165.525 126.952 165.525 134.673C165.525 139.278 160.524 140 155.797 140C152.915 140 149.698 139.729 147.213 139.308L147.35 136.298C150.003 136.764 152.488 136.99 155.294 136.99C158.786 136.99 161.942 136.599 161.942 134.808C161.942 131.061 147.487 135.44 147.487 127.885C147.487 123.386 152.656 122.784 156.438 122.784C159.853 122.784 163.009 123.28 164.153 123.581L163.97 126.591Z" fill="black"/>
<path d="M16.4671 115.59V108.803H3.65936V115.59H0V98.976H3.65936V105.628H16.4671V98.976H20.157V115.59H16.4671Z" fill="black"/>
<path d="M29.4429 115.59V98.976H33.1022V115.59H29.4429Z" fill="black"/>
<path d="M54.2804 109.435V106.756H64.176C64.176 107.057 64.2065 107.253 64.2065 107.644C64.2065 113.047 58.8089 115.921 52.7405 115.921C46.5958 115.921 41.1982 112.836 41.1982 107.253C41.1982 101.399 46.9312 98.7051 52.8015 98.7051C55.9881 98.7051 58.9766 99.3672 61.3247 100.526V103.732C58.9766 102.633 56.3541 101.745 52.9692 101.745C49.5538 101.745 45.1168 102.964 45.1168 107.148C45.1168 110.684 48.4407 112.776 52.9387 112.776C55.5612 112.776 58.9156 112.009 60.0897 109.435H54.2804Z" fill="black"/>
<path d="M88.3426 115.59V108.803H75.5348V115.59H71.8755V98.976H75.5348V105.628H88.3426V98.976H92.0325V115.59H88.3426Z" fill="black"/>
<path d="M101.333 115.59V98.976H118.334V101.85H104.978V105.884H115.91V108.502H104.978V112.746H118.334V115.59H101.333Z" fill="black"/>
<path d="M130.278 105.297V115.59H126.618V98.7051L142.521 109.3V98.976H146.18V115.921L130.278 105.297Z" fill="black"/>
<path d="M155.355 115.59V98.976H165.418C170.587 98.976 176.259 101.399 176.259 107.283C176.259 113.212 170.587 115.59 165.418 115.59H155.355ZM164.976 112.49C168.498 112.49 172.325 111.361 172.325 107.298C172.325 103.265 168.498 102.106 164.976 102.106H158.999V112.505H164.976V112.49Z" fill="black"/>
</svg>
